<?xml version="1.0" standalone="no"?>
<!DOCTYPE svg PUBLIC "-//W3C//DTD SVG 20010904//EN"
 "http://www.w3.org/TR/2001/REC-SVG-20010904/DTD/svg10.dtd">
<svg version="1.0" xmlns="http://www.w3.org/2000/svg"
 width="500.000000pt" height="500.000000pt" viewBox="0 0 500.000000 500.000000"
 preserveAspectRatio="xMidYMid meet">
<metadata>
Created by potrace 1.14, written by Peter Selinger 2001-2017
</metadata>
<g transform="translate(0.000000,500.000000) scale(0.100000,-0.100000)"
fill="#000000" stroke="none">
<path d="M0 2500 l0 -2500 2500 0 2500 0 0 2500 0 2500 -2500 0 -2500 0 0
-2500z m2520 1833 c0 -5 -89 -131 -198 -282 -168 -234 -203 -278 -241 -298
-43 -22 -52 -23 -294 -23 l-249 0 -49 26 c-27 15 -56 38 -65 52 -16 24 -15 25
31 72 l47 48 61 -32 60 -31 181 0 c178 0 182 0 231 27 28 15 60 36 72 47 26
22 240 322 256 360 6 14 16 29 22 33 13 10 135 10 135 1z m287 -24 c185 -40
386 -130 537 -240 4 -4 -4 -27 -19 -52 -31 -54 -42 -134 -26 -193 7 -26 76
-133 181 -282 l170 -241 0 -279 c0 -305 5 -338 59 -424 16 -25 56 -65 88 -89
32 -23 59 -43 61 -45 8 -6 -83 -205 -129 -283 -73 -121 -167 -235 -282 -340
l-38 -34 -77 53 c-154 106 -161 120 -162 308 0 186 7 201 145 305 97 73 108
85 146 162 l29 60 0 267 c0 294 -5 323 -65 402 -27 36 -517 398 -599 444 -48
26 -147 30 -199 8 -18 -8 -144 -93 -282 -190 l-250 -176 -270 0 c-373 0 -394
-8 -533 -193 -74 -99 -123 -137 -177 -137 -14 0 -25 2 -25 4 0 21 36 167 56
231 31 94 98 236 149 318 l37 57 36 -35 c20 -19 57 -45 82 -57 44 -22 54 -23
330 -23 l285 0 55 26 c30 14 72 44 92 65 60 63 418 566 425 597 5 23 10 27 39
27 19 0 78 -9 131 -21z m-643 -96 c-38 -54 -81 -116 -96 -138 -16 -22 -50 -52
-76 -67 -45 -27 -53 -28 -185 -28 -100 0 -147 4 -174 15 -45 19 -39 26 71 99
139 92 289 160 456 205 75 20 75 17 4 -86z m1343 -285 c31 -30 53 -61 53 -73
0 -39 44 -108 151 -241 104 -128 108 -134 145 -247 21 -64 35 -119 32 -122 -8
-9 -59 18 -79 41 -15 17 -265 371 -362 513 -25 36 -37 64 -37 88 0 33 24 93
37 93 4 0 31 -23 60 -52z m-761 -217 c27 -8 503 -342 562 -395 13 -12 33 -38
43 -58 17 -34 19 -61 19 -289 0 -310 1 -308 -124 -398 -169 -122 -196 -177
-196 -395 0 -220 27 -282 170 -384 41 -30 76 -57 78 -60 1 -4 -18 -19 -42 -34
l-44 -26 -104 75 c-127 92 -145 108 -169 155 -17 34 -19 61 -19 284 0 307 -2
300 136 403 166 126 187 172 182 413 -5 242 -15 257 -283 443 -159 109 -159
110 -226 113 -51 3 -76 0 -110 -16 -51 -24 -319 -241 -361 -292 -52 -65 -68
-133 -68 -284 0 -209 27 -263 196 -388 66 -48 90 -74 109 -112 24 -49 25 -56
25 -267 l0 -217 -40 19 c-21 10 -48 19 -59 19 -18 0 -19 9 -23 163 -3 145 -6
166 -26 204 -37 70 -76 106 -172 158 -69 37 -100 60 -119 89 l-26 40 0 275 c0
275 0 276 25 319 20 36 72 76 301 237 240 169 305 211 329 214 3 1 19 -3 36
-8z m168 -384 c206 -145 206 -144 206 -344 0 -189 -6 -203 -140 -300 -87 -64
-111 -89 -148 -158 l-27 -50 -3 -271 c-3 -257 -2 -273 19 -328 27 -74 70 -122
182 -201 101 -73 104 -65 -37 -114 -73 -26 -92 -29 -102 -19 -8 7 -61 81 -119
163 l-105 150 0 285 c-1 381 -9 405 -180 531 -67 49 -103 85 -122 117 -27 45
-28 53 -28 177 1 190 -3 184 220 365 121 97 163 121 205 112 11 -2 92 -54 179
-115z m-954 -39 c-11 -24 -20 -50 -20 -60 0 -14 -19 -17 -157 -20 -131 -3
-164 -6 -193 -22 -71 -38 -107 -75 -151 -157 -57 -107 -74 -128 -123 -150 -31
-14 -65 -19 -138 -19 l-98 0 0 70 0 70 34 0 c89 0 178 56 254 160 125 171 122
169 399 170 l212 0 -19 -42z m1931 -325 c4 -89 11 -161 20 -180 11 -27 11 -45
0 -110 -7 -43 -15 -80 -17 -82 -9 -10 -79 58 -98 95 -19 35 -21 59 -24 256
l-3 216 58 -23 58 -24 6 -148z m-1959 -90 c4 -205 6 -221 28 -268 34 -69 82
-113 177 -163 52 -27 93 -56 110 -79 27 -35 28 -40 31 -184 l3 -148 -223 -3
c-212 -3 -225 -4 -272 -27 -62 -31 -109 -78 -142 -144 -15 -29 -28 -54 -30
-56 -7 -8 -119 95 -182 168 -119 139 -221 314 -276 475 -31 88 -65 236 -66
279 l0 27 118 0 c107 0 123 2 170 26 64 32 96 69 156 177 68 125 90 137 262
137 l132 0 4 -217z m491 -977 c55 -20 66 -33 199 -221 l120 -170 -39 -7 c-75
-13 -86 -10 -122 38 -75 99 -160 181 -213 205 -47 21 -71 24 -208 27 -147 3
-159 2 -211 -21 -30 -13 -72 -39 -92 -56 l-37 -33 -55 32 c-30 17 -55 35 -54
38 0 4 17 36 37 72 29 51 47 70 82 88 43 21 54 22 300 22 189 -1 265 -4 293
-14z m-96 -271 c33 -17 66 -44 92 -79 23 -29 41 -55 41 -58 0 -9 -113 3 -223
23 -101 18 -271 71 -291 89 -4 5 9 18 30 29 33 17 58 20 170 21 120 0 134 -2
181 -25z m-838 -471 c62 -18 127 -73 152 -129 21 -46 24 -130 7 -186 -49 -164
-294 -219 -432 -97 -60 52 -79 105 -75 201 4 62 9 81 33 116 65 93 192 132
315 95z m569 -46 l-3 -63 -49 -6 c-38 -4 -55 -12 -77 -37 l-29 -32 0 -145 0
-145 -70 0 -70 0 0 240 0 240 65 0 c63 0 65 -1 65 -26 l0 -25 28 19 c30 22 83
40 120 41 22 1 23 -2 20 -61z m353 50 c19 -6 46 -20 62 -30 l27 -19 0 25 c0
25 2 26 65 26 l65 0 0 -228 c0 -269 -8 -310 -70 -365 -55 -50 -131 -71 -236
-64 -82 5 -194 43 -194 66 0 8 33 71 46 90 2 2 22 -6 46 -17 90 -44 211 -37
244 13 9 13 18 43 21 67 l6 42 -27 -21 c-53 -42 -141 -51 -221 -20 -147 55
-194 257 -87 370 63 66 169 94 253 65z m722 -2 c97 -35 119 -88 125 -308 l5
-168 -77 0 -76 0 0 156 0 156 -29 29 c-34 33 -75 38 -122 13 -48 -24 -59 -65
-59 -219 l0 -135 -70 0 -70 0 0 240 0 240 70 0 c63 0 70 -2 70 -20 0 -22 10
-26 27 -9 35 35 141 48 206 25z m387 -140 c0 -80 4 -156 10 -171 12 -33 67
-57 110 -49 17 4 42 20 55 36 24 29 25 34 25 179 l0 149 70 0 70 0 0 -240 0
-240 -65 0 c-63 0 -65 1 -65 26 l0 25 -25 -19 c-14 -11 -48 -25 -75 -32 -97
-23 -193 20 -231 105 -16 34 -19 67 -19 208 l0 167 70 0 70 0 0 -144z"/>
<path d="M1314 1016 c-30 -30 -34 -40 -34 -85 0 -88 45 -141 120 -141 71 0
120 53 120 130 0 83 -45 130 -123 130 -42 0 -54 -5 -83 -34z"/>
<path d="M2280 1023 c-60 -53 -48 -153 22 -189 22 -11 47 -15 82 -11 65 6 106
47 106 107 0 82 -40 120 -129 120 -41 0 -57 -5 -81 -27z"/>
</g>
</svg>
